<svg xmlns="http://www.w3.org/2000/svg" version="1.1" viewBox="-5.0 -10.0 110.0 135.0" fill="white" height="250">
 <g>
  <path d="m50.91 7.6367v69.363h27.547l-0.003906-69.363zm5.9062 38.09c0 0.54688-0.36328 0.91016-0.91016 0.91016s-0.91016-0.36328-0.91016-0.91016v-6.8164c0-0.54688 0.36328-0.91016 0.91016-0.91016s0.91016 0.36328 0.91016 0.91016z"/>
  <path d="m74.453 92.363h1.9102v-4.9102h-5.0898z"/>
  <path d="m21.547 78.816v6.8203h56.906v-6.8203z"/>
  <path d="m49.09 7.6367h-27.543v69.363h27.543zm-4.0898 38.09c0 0.54688-0.36328 0.91016-0.91016 0.91016s-0.91016-0.36328-0.91016-0.91016v-6.8164c0-0.54688 0.36328-0.91016 0.91016-0.91016s0.91016 0.36328 0.91016 0.91016z"/>
  <path d="m23.637 92.363h1.9102l3.1797-4.9102h-5.0898z"/>
 </g>
</svg>